<?xml version="1.0" encoding="UTF-8" standalone="no"?>
<!DOCTYPE svg PUBLIC "-//W3C//DTD SVG 1.1//EN" "http://www.w3.org/Graphics/SVG/1.1/DTD/svg11.dtd">
<svg width="100%" height="100%" viewBox="0 0 512 513" version="1.1"
    xmlns="http://www.w3.org/2000/svg"
    xmlns:xlink="http://www.w3.org/1999/xlink" xml:space="preserve"
    xmlns:serif="http://www.serif.com/" style="fill-rule:evenodd;clip-rule:evenodd;stroke-linejoin:round;stroke-miterlimit:2;">
    <g transform="matrix(1,0,0,1,0,-596)">
        <g id="Square-Logo-white" serif:id="Square Logo white" transform="matrix(0.748062,0,0,0.748062,-97.2322,841.962)">
            <g transform="matrix(4.19243,0,0,4.19243,-724.669,827.018)">
                <g transform="matrix(1.33679,0,0,1.33679,92.2714,-354.737)">
                    <path d="M114.619,99.887L84.715,99.887L84.715,69.154L94.69,59.179L94.69,89.912L124.594,89.912L114.619,99.887Z" style="fill:#fff;"/>
                </g>
                <g transform="matrix(1.33679,0,0,1.33679,145.582,-354.737)">
                    <path d="M114.619,99.887L84.715,99.887L84.715,69.154L94.69,59.179L94.69,89.912L124.594,89.912L114.619,99.887Z" style="fill:#fff;"/>
                </g>
                <g transform="matrix(1.33679,0,0,1.33679,198.892,-354.737)">
                    <path d="M114.619,99.887L84.715,99.887L84.715,69.154L94.69,59.179L94.69,89.912L124.594,89.912L114.619,99.887Z" style="fill:#fff;"/>
                </g>
                <g transform="matrix(1.33679,0,0,1.33679,198.892,-354.737)">
                    <path d="M114.619,99.887L84.715,99.887L84.715,69.154L94.69,59.179L94.69,89.912L124.594,89.912L114.619,99.887Z" style="fill:#fff;"/>
                </g>
                <g transform="matrix(1.33679,0,0,1.33679,92.2714,-300.318)">
                    <path d="M114.619,99.887L84.715,99.887L84.715,69.154L94.69,59.179L94.69,89.912L124.594,89.912L114.619,99.887Z" style="fill:#fff;"/>
                </g>
                <g transform="matrix(1.33679,0,0,1.33679,145.582,-300.318)">
                    <path d="M114.619,99.887L84.715,99.887L84.715,69.154L94.69,59.179L94.69,89.912L124.594,89.912L114.619,99.887Z" style="fill:#fff;"/>
                </g>
                <g transform="matrix(1.33679,0,0,1.33679,198.892,-300.318)">
                    <path d="M114.619,99.887L84.715,99.887L84.715,69.154L94.69,59.179L94.69,89.912L124.594,89.912L114.619,99.887Z" style="fill:#fff;"/>
                </g>
                <g transform="matrix(1.33679,0,0,1.33679,198.892,-300.318)">
                    <path d="M114.619,99.887L84.715,99.887L84.715,69.154L94.69,59.179L94.69,89.912L124.594,89.912L114.619,99.887Z" style="fill:#fff;"/>
                </g>
                <g transform="matrix(1.33679,0,0,1.33679,92.2714,-245.9)">
                    <path d="M114.619,99.887L84.715,99.887L84.715,69.154L94.69,59.179L94.69,89.912L124.594,89.912L114.619,99.887Z" style="fill:#fff;"/>
                </g>
                <g transform="matrix(1.33679,0,0,1.33679,145.582,-245.9)">
                    <path d="M114.619,99.887L84.715,99.887L84.715,69.154L94.69,59.179L94.69,89.912L124.594,89.912L114.619,99.887Z" style="fill:#fff;"/>
                </g>
                <g transform="matrix(1.33679,0,0,1.33679,198.892,-245.9)">
                    <path d="M114.619,99.887L84.715,99.887L84.715,69.154L94.69,59.179L94.69,89.912L124.594,89.912L114.619,99.887Z" style="fill:#fff;"/>
                </g>
                <g transform="matrix(1.33679,0,0,1.33679,198.892,-245.9)">
                    <path d="M114.619,99.887L84.715,99.887L84.715,69.154L94.69,59.179L94.69,89.912L124.594,89.912L114.619,99.887Z" style="fill:#fff;"/>
                </g>
            </g>
        </g>
    </g>
</svg>
